<svg width="800" height="800" viewBox="0 0 800 787" fill="none" xmlns="http://www.w3.org/2000/svg">
<path d="M611.06 156.785C608.413 156.785 606.22 156.941 603.579 157.248C592.244 158.567 581.517 162.679 573.455 168.854V154.883C573.455 119.637 547.577 90.0451 513.236 86.0519C510.595 85.7428 507.918 85.587 505.266 85.587C491.214 85.5843 477.805 89.8301 466.476 97.7172C463.995 64.8845 439.026 38.1572 406.451 34.3682C403.809 34.0618 401.154 34 398.505 34H398.491H398.48C380.301 34 363.181 41.0056 350.277 53.9098C338.388 65.7981 331.42 81.2175 330.402 97.7978C321.504 91.5661 311.046 87.4009 299.654 86.0761C297.013 85.767 294.328 85.6004 291.679 85.6004C273.5 85.5977 255.358 92.6974 242.454 105.599C229.552 118.503 221.421 135.613 221.421 153.792V385.002L206.576 370.015C193.834 357.466 177.463 350.562 159.491 350.562C141.341 350.562 124.562 357.606 111.773 370.392C85.9246 396.24 85.4624 437.93 110.131 464.502L254.915 655.374L258.032 696.394C259.878 720.953 280.629 740.188 305.255 740.188L569.87 739.979C593.531 739.949 613.688 722.248 616.768 698.802L623.185 649.943C643.492 617.075 657.525 573.501 666.912 520.342C675.11 473.926 678.255 418.832 678.255 356.598V224.988C678.255 187.38 648.671 156.785 611.06 156.785ZM584.798 694.599C583.814 702.105 577.421 707.998 569.851 708.006L305.29 708.495C305.282 708.495 305.276 708.495 305.268 708.495C297.373 708.495 290.811 702.129 290.217 694.253L286.425 643.649C286.422 643.622 286.414 643.528 286.396 643.507L134.832 443.571C120.988 429.726 120.988 407.051 134.832 393.209C141.755 386.287 150.881 382.815 160.004 382.815C169.13 382.815 178.256 386.273 185.178 393.196L227.835 433.472C231.159 436.611 234.134 438.016 238.052 438.016C246.563 438.016 253.668 431.379 253.668 421.449V153.789C253.668 134.014 270.871 117.829 290.649 117.831C292.05 117.831 293.275 117.912 294.707 118.078C313.01 120.209 326.223 136.454 326.223 154.88V339.265C326.223 348.837 334.008 356.595 343.583 356.595C353.273 356.595 361.157 348.738 361.157 339.048V102.011C361.157 82.2333 378.017 66.0507 397.792 66.0507C399.19 66.0507 400.593 66.1314 402.022 66.3007C420.325 68.4289 433.713 84.676 433.713 103.1V339.029C433.713 348.73 441.608 356.598 451.309 356.598C460.87 356.598 468.647 348.845 468.647 339.287V153.789C468.647 134.014 485.16 117.829 504.938 117.831C506.336 117.831 507.908 117.912 509.337 118.078C527.64 120.209 541.2 136.454 541.2 154.88V338.623C541.2 348.55 549.275 356.466 559.199 356.466H559.497C568.669 356.466 576.131 349.16 576.131 339.988V226.076C576.131 207.652 589.527 191.408 607.827 189.277C609.257 189.11 609.657 189.03 611.057 189.03C630.833 189.03 646 205.21 646 224.988V356.598C646 469 633.375 572.859 593.018 635.714C591.793 637.624 591.486 639.761 591.191 642.013L584.798 694.599Z" fill="black"/>
</svg>

